<svg width="800" height="600" xmlns="http://www.w3.org/2000/svg">
 <g>
  <title>Layer 1</title>
  <rect fill="none" stroke="#000" x="4" y="-1.99998" width="798" height="597.99998" id="svg_5" stroke-width="12"/>
  <rect fill="#ffffff" stroke="#000" x="6.00004" y="559" width="787.99992" height="31" id="svg_6" stroke-width="4"/>
  <rect fill="#ffffff" stroke="#000" stroke-width="2" x="8" y="7" width="28" height="549" id="svg_7" rx="21"/>
  <rect fill="#ffffff" stroke="#000" stroke-width="3" x="34" y="13" width="157" height="543" id="svg_8" rx="21"/>
  <rect fill="none" stroke="#000" stroke-width="6" x="14" y="563" width="25" height="25" id="svg_9" rx="7"/>
  <rect fill="none" stroke="#000" stroke-width="6" x="48" y="562" width="25" height="25" id="svg_10" rx="7"/>
  <rect fill="none" stroke="#000" stroke-width="6" x="86" y="561" width="25" height="25" id="svg_11" rx="7"/>
  <rect fill="none" stroke="#000" stroke-width="6" x="124" y="561" width="25" height="25" id="svg_12" rx="7"/>
  <rect fill="none" stroke="#000" stroke-width="6" x="165" y="562" width="25" height="25" id="svg_13" rx="7"/>
  <rect fill="none" stroke="#000" stroke-width="6" x="205" y="563" width="25" height="25" id="svg_14" rx="7"/>
  <rect fill="none" stroke="#000" stroke-width="6" x="246" y="561" width="25" height="25" id="svg_15" rx="7"/>
  <rect fill="none" stroke="#000" stroke-width="6" x="50" y="50" width="25" height="25" id="svg_16" rx="7"/>
  <rect fill="none" stroke="#000" stroke-width="6" x="91" y="50" width="25" height="25" id="svg_17" rx="7"/>
  <rect fill="none" stroke="#000" stroke-width="6" x="135" y="50" width="25" height="25" id="svg_18" rx="7"/>
  <rect fill="none" stroke="#000" stroke-width="6" x="92" y="90" width="25" height="25" id="svg_19" rx="7"/>
  <rect fill="none" stroke="#000" stroke-width="6" x="135" y="90" width="25" height="25" id="svg_20" rx="7"/>
  <rect fill="none" stroke="#000" stroke-width="6" x="51" y="89" width="25" height="25" id="svg_21" rx="7"/>
  <rect fill="none" stroke="#000" stroke-width="6" x="50" y="126" width="25" height="25" id="svg_22" rx="7"/>
  <rect fill="none" stroke="#000" stroke-width="6" x="90" y="128" width="25" height="25" id="svg_23" rx="7"/>
  <rect fill="none" stroke="#000" stroke-width="6" x="133" y="129" width="25" height="25" id="svg_24" rx="7"/>
  <rect fill="none" stroke="#000" stroke-width="6" x="51" y="185" width="25" height="25" id="svg_25" rx="7"/>
  <rect fill="none" stroke="#000" stroke-width="6" x="91" y="184" width="25" height="25" id="svg_26" rx="7"/>
  <rect fill="none" stroke="#000" stroke-width="6" x="130" y="185" width="25" height="25" id="svg_27" rx="7"/>
  <rect fill="none" stroke="#000" stroke-width="6" x="129" y="228" width="25" height="25" id="svg_28" rx="7"/>
  <rect fill="none" stroke="#000" stroke-width="6" x="90" y="228" width="25" height="25" id="svg_29" rx="7"/>
  <rect fill="none" stroke="#000" stroke-width="6" x="50" y="228" width="25" height="25" id="svg_30" rx="7"/>
  <rect fill="none" stroke="#000" stroke-width="6" x="51" y="269" width="25" height="25" id="svg_31" rx="7"/>
  <rect fill="none" stroke="#000" stroke-width="6" x="89" y="268" width="25" height="25" id="svg_32" rx="7"/>
  <rect fill="none" stroke="#000" stroke-width="6" x="129" y="267" width="25" height="25" id="svg_33" rx="7"/>
  <rect fill="none" stroke="#000" stroke-width="6" x="13" y="156" width="16" height="16" id="svg_34"/>
  <rect fill="none" stroke="#000" stroke-width="6" x="13" y="184" width="16" height="16" id="svg_35"/>
  <rect fill="none" stroke="#000" stroke-width="6" x="13" y="213" width="16" height="16" id="svg_36"/>
  <rect fill="none" stroke="#000" stroke-width="6" x="13" y="242" width="16" height="16" id="svg_37"/>
  <rect fill="none" stroke="#000" stroke-width="6" x="13" y="271" width="16" height="18" id="svg_38"/>
  <rect fill="none" stroke="#000" stroke-width="6" x="13" y="302" width="18" height="17" id="svg_39"/>
  <rect fill="none" stroke="#000" stroke-width="6" x="14" y="330" width="16" height="16" id="svg_40"/>
  <line fill="none" stroke="#000" stroke-width="3" x1="53" y1="30" x2="159" y2="31" id="svg_41"/>
  <line fill="none" stroke="#000" stroke-width="3" x1="52" y1="170" x2="156" y2="170" id="svg_42"/>
  <line fill="none" stroke="#000" stroke-width="3" x1="633" y1="576" x2="785" y2="576" id="svg_43"/>
 </g>

</svg>